<mxfile host="app.diagrams.net" modified="2022-11-18T07:30:12.622Z" agent="5.0 (Windows NT 10.0; Win64; x64) AppleWebKit/537.36 (KHTML, like Gecko) Chrome/107.0.0.0 Safari/537.36" etag="EJxtr6a0A0cxXGkdP2dM" version="20.5.3" type="github">
  <diagram name="Page-1" id="42789a77-a242-8287-6e28-9cd8cfd52e62">
    <mxGraphModel dx="1430" dy="1734" grid="1" gridSize="10" guides="1" tooltips="1" connect="1" arrows="1" fold="1" page="1" pageScale="1" pageWidth="1100" pageHeight="850" background="none" math="0" shadow="0">
      <root>
        <mxCell id="0" />
        <mxCell id="1" parent="0" />
        <mxCell id="02_AGK8KTRCJ4XGguI3B-95" value="" style="edgeStyle=orthogonalEdgeStyle;rounded=0;orthogonalLoop=1;jettySize=auto;html=1;" edge="1" parent="1" source="02_AGK8KTRCJ4XGguI3B-2" target="02_AGK8KTRCJ4XGguI3B-94">
          <mxGeometry relative="1" as="geometry" />
        </mxCell>
        <mxCell id="02_AGK8KTRCJ4XGguI3B-2" value="Draw" style="swimlane;fontStyle=1;align=center;verticalAlign=top;childLayout=stackLayout;horizontal=1;startSize=26;horizontalStack=0;resizeParent=1;resizeParentMax=0;resizeLast=0;collapsible=1;marginBottom=0;" vertex="1" parent="1">
          <mxGeometry x="580" y="-160" width="300" height="320" as="geometry" />
        </mxCell>
        <mxCell id="02_AGK8KTRCJ4XGguI3B-9" value="+ drawPoint():void&#xa;" style="text;strokeColor=none;fillColor=none;align=left;verticalAlign=top;spacingLeft=4;spacingRight=4;overflow=hidden;rotatable=0;points=[[0,0.5],[1,0.5]];portConstraint=eastwest;" vertex="1" parent="02_AGK8KTRCJ4XGguI3B-2">
          <mxGeometry y="26" width="300" height="26" as="geometry" />
        </mxCell>
        <mxCell id="02_AGK8KTRCJ4XGguI3B-10" value="+ drawLinString():void&#xa;" style="text;strokeColor=none;fillColor=none;align=left;verticalAlign=top;spacingLeft=4;spacingRight=4;overflow=hidden;rotatable=0;points=[[0,0.5],[1,0.5]];portConstraint=eastwest;" vertex="1" parent="02_AGK8KTRCJ4XGguI3B-2">
          <mxGeometry y="52" width="300" height="26" as="geometry" />
        </mxCell>
        <mxCell id="02_AGK8KTRCJ4XGguI3B-3" value="+ drawPolygon():void&#xa;" style="text;strokeColor=none;fillColor=none;align=left;verticalAlign=top;spacingLeft=4;spacingRight=4;overflow=hidden;rotatable=0;points=[[0,0.5],[1,0.5]];portConstraint=eastwest;" vertex="1" parent="02_AGK8KTRCJ4XGguI3B-2">
          <mxGeometry y="78" width="300" height="26" as="geometry" />
        </mxCell>
        <mxCell id="02_AGK8KTRCJ4XGguI3B-4" value="" style="line;strokeWidth=1;fillColor=none;align=left;verticalAlign=middle;spacingTop=-1;spacingLeft=3;spacingRight=3;rotatable=0;labelPosition=right;points=[];portConstraint=eastwest;strokeColor=inherit;" vertex="1" parent="02_AGK8KTRCJ4XGguI3B-2">
          <mxGeometry y="104" width="300" height="8" as="geometry" />
        </mxCell>
        <mxCell id="02_AGK8KTRCJ4XGguI3B-5" value="+ drawCircle():void&#xa;" style="text;strokeColor=none;fillColor=none;align=left;verticalAlign=top;spacingLeft=4;spacingRight=4;overflow=hidden;rotatable=0;points=[[0,0.5],[1,0.5]];portConstraint=eastwest;" vertex="1" parent="02_AGK8KTRCJ4XGguI3B-2">
          <mxGeometry y="112" width="300" height="26" as="geometry" />
        </mxCell>
        <mxCell id="02_AGK8KTRCJ4XGguI3B-6" value="+ drawTriangle():void&#xa;" style="text;strokeColor=none;fillColor=none;align=left;verticalAlign=top;spacingLeft=4;spacingRight=4;overflow=hidden;rotatable=0;points=[[0,0.5],[1,0.5]];portConstraint=eastwest;" vertex="1" parent="02_AGK8KTRCJ4XGguI3B-2">
          <mxGeometry y="138" width="300" height="26" as="geometry" />
        </mxCell>
        <mxCell id="02_AGK8KTRCJ4XGguI3B-7" value="+ drawSquare():void&#xa;" style="text;strokeColor=none;fillColor=none;align=left;verticalAlign=top;spacingLeft=4;spacingRight=4;overflow=hidden;rotatable=0;points=[[0,0.5],[1,0.5]];portConstraint=eastwest;" vertex="1" parent="02_AGK8KTRCJ4XGguI3B-2">
          <mxGeometry y="164" width="300" height="26" as="geometry" />
        </mxCell>
        <mxCell id="02_AGK8KTRCJ4XGguI3B-8" value="+ drawRegularPolygon(n:number):void&#xa;" style="text;strokeColor=none;fillColor=none;align=left;verticalAlign=top;spacingLeft=4;spacingRight=4;overflow=hidden;rotatable=0;points=[[0,0.5],[1,0.5]];portConstraint=eastwest;" vertex="1" parent="02_AGK8KTRCJ4XGguI3B-2">
          <mxGeometry y="190" width="300" height="26" as="geometry" />
        </mxCell>
        <mxCell id="02_AGK8KTRCJ4XGguI3B-11" value="+ on(event:EventType,callBack:Functoin)" style="text;strokeColor=none;fillColor=none;align=left;verticalAlign=top;spacingLeft=4;spacingRight=4;overflow=hidden;rotatable=0;points=[[0,0.5],[1,0.5]];portConstraint=eastwest;" vertex="1" parent="02_AGK8KTRCJ4XGguI3B-2">
          <mxGeometry y="216" width="300" height="26" as="geometry" />
        </mxCell>
        <mxCell id="02_AGK8KTRCJ4XGguI3B-43" value="+ showToolBar(conifg,positon,)" style="text;strokeColor=none;fillColor=none;align=left;verticalAlign=top;spacingLeft=4;spacingRight=4;overflow=hidden;rotatable=0;points=[[0,0.5],[1,0.5]];portConstraint=eastwest;" vertex="1" parent="02_AGK8KTRCJ4XGguI3B-2">
          <mxGeometry y="242" width="300" height="26" as="geometry" />
        </mxCell>
        <mxCell id="02_AGK8KTRCJ4XGguI3B-44" value="+ hideToolBar();" style="text;strokeColor=none;fillColor=none;align=left;verticalAlign=top;spacingLeft=4;spacingRight=4;overflow=hidden;rotatable=0;points=[[0,0.5],[1,0.5]];portConstraint=eastwest;" vertex="1" parent="02_AGK8KTRCJ4XGguI3B-2">
          <mxGeometry y="268" width="300" height="26" as="geometry" />
        </mxCell>
        <mxCell id="02_AGK8KTRCJ4XGguI3B-45" value="+ getAllFeatures():Array&lt;Features&gt;" style="text;strokeColor=none;fillColor=none;align=left;verticalAlign=top;spacingLeft=4;spacingRight=4;overflow=hidden;rotatable=0;points=[[0,0.5],[1,0.5]];portConstraint=eastwest;" vertex="1" parent="02_AGK8KTRCJ4XGguI3B-2">
          <mxGeometry y="294" width="300" height="26" as="geometry" />
        </mxCell>
        <mxCell id="02_AGK8KTRCJ4XGguI3B-30" style="edgeStyle=orthogonalEdgeStyle;rounded=0;orthogonalLoop=1;jettySize=auto;html=1;entryX=-0.006;entryY=0.411;entryDx=0;entryDy=0;entryPerimeter=0;" edge="1" parent="1" source="02_AGK8KTRCJ4XGguI3B-23" target="02_AGK8KTRCJ4XGguI3B-26">
          <mxGeometry relative="1" as="geometry" />
        </mxCell>
        <mxCell id="02_AGK8KTRCJ4XGguI3B-23" value="Actor" style="shape=umlActor;verticalLabelPosition=bottom;verticalAlign=top;html=1;" vertex="1" parent="1">
          <mxGeometry x="70" y="460" width="30" height="60" as="geometry" />
        </mxCell>
        <mxCell id="02_AGK8KTRCJ4XGguI3B-26" value="&lt;p style=&quot;margin:0px;margin-top:4px;text-align:center;&quot;&gt;&lt;b&gt;SwMap&lt;/b&gt;&lt;/p&gt;&lt;hr size=&quot;1&quot;&gt;&lt;p style=&quot;margin:0px;margin-left:4px;&quot;&gt;+&amp;nbsp;&lt;/p&gt;&lt;hr size=&quot;1&quot;&gt;&lt;p style=&quot;margin:0px;margin-left:4px;&quot;&gt;+ getDraw(this):Draw&lt;br&gt;+ getVectorData(this):VectorData&lt;/p&gt;" style="verticalAlign=top;align=left;overflow=fill;fontSize=12;fontFamily=Helvetica;html=1;" vertex="1" parent="1">
          <mxGeometry x="220" y="450" width="200" height="90" as="geometry" />
        </mxCell>
        <mxCell id="02_AGK8KTRCJ4XGguI3B-32" value="BaseMap" style="swimlane;fontStyle=1;align=center;verticalAlign=top;childLayout=stackLayout;horizontal=1;startSize=26;horizontalStack=0;resizeParent=1;resizeParentMax=0;resizeLast=0;collapsible=1;marginBottom=0;" vertex="1" parent="1">
          <mxGeometry x="610" y="439" width="240" height="112" as="geometry" />
        </mxCell>
        <mxCell id="02_AGK8KTRCJ4XGguI3B-33" value="+ map :Map" style="text;strokeColor=none;fillColor=none;align=left;verticalAlign=top;spacingLeft=4;spacingRight=4;overflow=hidden;rotatable=0;points=[[0,0.5],[1,0.5]];portConstraint=eastwest;" vertex="1" parent="02_AGK8KTRCJ4XGguI3B-32">
          <mxGeometry y="26" width="240" height="26" as="geometry" />
        </mxCell>
        <mxCell id="02_AGK8KTRCJ4XGguI3B-34" value="" style="line;strokeWidth=1;fillColor=none;align=left;verticalAlign=middle;spacingTop=-1;spacingLeft=3;spacingRight=3;rotatable=0;labelPosition=right;points=[];portConstraint=eastwest;strokeColor=inherit;" vertex="1" parent="02_AGK8KTRCJ4XGguI3B-32">
          <mxGeometry y="52" width="240" height="8" as="geometry" />
        </mxCell>
        <mxCell id="02_AGK8KTRCJ4XGguI3B-35" value="+ getLayer(id:string):Layer" style="text;strokeColor=none;fillColor=none;align=left;verticalAlign=top;spacingLeft=4;spacingRight=4;overflow=hidden;rotatable=0;points=[[0,0.5],[1,0.5]];portConstraint=eastwest;" vertex="1" parent="02_AGK8KTRCJ4XGguI3B-32">
          <mxGeometry y="60" width="240" height="26" as="geometry" />
        </mxCell>
        <mxCell id="02_AGK8KTRCJ4XGguI3B-37" value="+ getLayers(ids:string):Array&lt;Layer&gt;&#xa;" style="text;strokeColor=none;fillColor=none;align=left;verticalAlign=top;spacingLeft=4;spacingRight=4;overflow=hidden;rotatable=0;points=[[0,0.5],[1,0.5]];portConstraint=eastwest;" vertex="1" parent="02_AGK8KTRCJ4XGguI3B-32">
          <mxGeometry y="86" width="240" height="26" as="geometry" />
        </mxCell>
        <mxCell id="02_AGK8KTRCJ4XGguI3B-40" value="Extends" style="endArrow=block;endSize=16;endFill=0;html=1;rounded=0;exitX=1;exitY=0.5;exitDx=0;exitDy=0;" edge="1" parent="1" source="02_AGK8KTRCJ4XGguI3B-26" target="02_AGK8KTRCJ4XGguI3B-32">
          <mxGeometry width="160" relative="1" as="geometry">
            <mxPoint x="410" y="494.5" as="sourcePoint" />
            <mxPoint x="540" y="494.5" as="targetPoint" />
          </mxGeometry>
        </mxCell>
        <mxCell id="02_AGK8KTRCJ4XGguI3B-47" value="" style="endArrow=diamondThin;endFill=1;endSize=24;html=1;rounded=0;exitX=-0.007;exitY=0.154;exitDx=0;exitDy=0;exitPerimeter=0;" edge="1" parent="1" source="02_AGK8KTRCJ4XGguI3B-9" target="02_AGK8KTRCJ4XGguI3B-26">
          <mxGeometry width="160" relative="1" as="geometry">
            <mxPoint x="400" y="160" as="sourcePoint" />
            <mxPoint x="600" y="-30.5" as="targetPoint" />
          </mxGeometry>
        </mxCell>
        <mxCell id="02_AGK8KTRCJ4XGguI3B-97" value="" style="edgeStyle=orthogonalEdgeStyle;rounded=0;orthogonalLoop=1;jettySize=auto;html=1;" edge="1" parent="1" source="02_AGK8KTRCJ4XGguI3B-85" target="02_AGK8KTRCJ4XGguI3B-96">
          <mxGeometry relative="1" as="geometry" />
        </mxCell>
        <mxCell id="02_AGK8KTRCJ4XGguI3B-85" value="VectorData" style="swimlane;fontStyle=1;childLayout=stackLayout;horizontal=1;startSize=26;fillColor=none;horizontalStack=0;resizeParent=1;resizeParentMax=0;resizeLast=0;collapsible=1;marginBottom=0;" vertex="1" parent="1">
          <mxGeometry x="590" y="210" width="280" height="156" as="geometry" />
        </mxCell>
        <mxCell id="02_AGK8KTRCJ4XGguI3B-86" value="+ getGeoJSON(isDownload = false):string" style="text;strokeColor=none;fillColor=none;align=left;verticalAlign=top;spacingLeft=4;spacingRight=4;overflow=hidden;rotatable=0;points=[[0,0.5],[1,0.5]];portConstraint=eastwest;" vertex="1" parent="02_AGK8KTRCJ4XGguI3B-85">
          <mxGeometry y="26" width="280" height="26" as="geometry" />
        </mxCell>
        <mxCell id="02_AGK8KTRCJ4XGguI3B-87" value="+ getShp(isDownload = false):string" style="text;strokeColor=none;fillColor=none;align=left;verticalAlign=top;spacingLeft=4;spacingRight=4;overflow=hidden;rotatable=0;points=[[0,0.5],[1,0.5]];portConstraint=eastwest;" vertex="1" parent="02_AGK8KTRCJ4XGguI3B-85">
          <mxGeometry y="52" width="280" height="26" as="geometry" />
        </mxCell>
        <mxCell id="02_AGK8KTRCJ4XGguI3B-88" value="+ getSvg(isDownload = false):string" style="text;strokeColor=none;fillColor=none;align=left;verticalAlign=top;spacingLeft=4;spacingRight=4;overflow=hidden;rotatable=0;points=[[0,0.5],[1,0.5]];portConstraint=eastwest;" vertex="1" parent="02_AGK8KTRCJ4XGguI3B-85">
          <mxGeometry y="78" width="280" height="26" as="geometry" />
        </mxCell>
        <mxCell id="02_AGK8KTRCJ4XGguI3B-98" value="+ setGeoJson(str:string):boolean" style="text;strokeColor=none;fillColor=none;align=left;verticalAlign=top;spacingLeft=4;spacingRight=4;overflow=hidden;rotatable=0;points=[[0,0.5],[1,0.5]];portConstraint=eastwest;" vertex="1" parent="02_AGK8KTRCJ4XGguI3B-85">
          <mxGeometry y="104" width="280" height="26" as="geometry" />
        </mxCell>
        <mxCell id="02_AGK8KTRCJ4XGguI3B-100" value="+ setShp(str:string):boolean" style="text;strokeColor=none;fillColor=none;align=left;verticalAlign=top;spacingLeft=4;spacingRight=4;overflow=hidden;rotatable=0;points=[[0,0.5],[1,0.5]];portConstraint=eastwest;" vertex="1" parent="02_AGK8KTRCJ4XGguI3B-85">
          <mxGeometry y="130" width="280" height="26" as="geometry" />
        </mxCell>
        <mxCell id="02_AGK8KTRCJ4XGguI3B-94" value="图形绘制&lt;br&gt;1. 绘制模块实现个图型绘制&lt;br&gt;2. 提供工具栏显示&lt;br&gt;3. 提供绘制内容的获取" style="ellipse;whiteSpace=wrap;html=1;verticalAlign=top;fontStyle=1;startSize=26;" vertex="1" parent="1">
          <mxGeometry x="1060" y="-35" width="260" height="70" as="geometry" />
        </mxCell>
        <mxCell id="02_AGK8KTRCJ4XGguI3B-96" value="&lt;b&gt;矢量数据处理&lt;/b&gt;&lt;br&gt;1.矢量数据获取与下载&lt;br&gt;2.加载与导出矢量数据&lt;br&gt;3.提供下载与导入工具栏" style="ellipse;whiteSpace=wrap;html=1;fillColor=none;fontStyle=0;startSize=26;" vertex="1" parent="1">
          <mxGeometry x="1030" y="258" width="300" height="60" as="geometry" />
        </mxCell>
        <mxCell id="02_AGK8KTRCJ4XGguI3B-102" value="" style="endArrow=diamondThin;endFill=1;endSize=24;html=1;rounded=0;" edge="1" parent="1" source="02_AGK8KTRCJ4XGguI3B-85" target="02_AGK8KTRCJ4XGguI3B-26">
          <mxGeometry width="160" relative="1" as="geometry">
            <mxPoint x="360" y="410" as="sourcePoint" />
            <mxPoint x="520" y="410" as="targetPoint" />
          </mxGeometry>
        </mxCell>
      </root>
    </mxGraphModel>
  </diagram>
</mxfile>
